<svg id="Capa_1" enable-background="new 0 0 510.131 510.131" height="40" viewBox="0 0 510.131 510.131" width="40" xmlns="http://www.w3.org/2000/svg"><g><path d="m461.914 509.863 48.217-48.208-27.911-34.247 27.911-34.25-27.911-34.251 27.911-34.255-27.911-34.256 27.911-34.255-27.911-34.257 27.911-34.262-48.208-48.217-34.247 27.911-34.25-27.911-34.251 27.911-34.255-27.911-34.256 27.911-34.255-27.911-34.257 27.911-34.262-27.911-48.217 48.208 27.911 34.247-27.911 34.25 27.911 34.251-27.911 34.255 27.911 34.256-27.911 34.255 4.468 5.484 23.443 28.773-27.718 36.577 48.015 45.902 34.247-27.911 34.25 27.911 34.251-27.911 34.255 27.911 34.256-27.911 34.255 27.911 34.257-27.911zm-212.013-80.23h-30v-30h30zm0-60h-30v-30h30zm0-60h-30v-30h30zm0-60h-30v-30h30zm60 180h-30v-30h30zm0-60h-30v-30h30zm0-60h-30v-30h30zm0-60h-30v-30h30zm60 180h-30v-30h30zm0-60h-30v-30h30zm0-60h-30v-30h30zm0-60h-30v-30h30zm30-30h30v30h-30zm0 60h30v30h-30zm0 60h30v30h-30zm0 60h30v30h-30z"/><path d="m128.886 358.871-27.911-34.255 27.91-34.254-27.912-34.253 27.91-34.249-29.586-36.302 86.539-86.522 36.314 29.584 34.259-27.913 34.255 27.911 34.256-27.911 34.254 27.91 24.773-20.187-23.854-21.458 29.34-36.017-50.677-50.687-36.001 29.341-36.004-29.341-36.006 29.341-36.01-29.341-36.01 29.341-36.01-29.341-36.011 29.341-36.017-29.341-50.687 50.678 29.341 36-29.341 36.005 29.341 36.005-29.341 36.01 29.341 36.011-29.341 36.009 29.341 36.012-29.138 38.451 50.474 48.253 36.001-29.341 22.653 22.511z"/></g></svg>