<svg width="37" height="37" viewBox="0 0 37 37" fill="none" xmlns="http://www.w3.org/2000/svg">
<path d="M1.625 1.625H5.375L6.125 5.375L1.625 1.625ZM9.125 20.375H27.875L35.375 5.375H6.125L9.125 20.375ZM9.125 20.375L6.125 5.375L9.125 20.375ZM9.125 20.375L4.82562 24.6744C3.64437 25.8556 4.48063 27.875 6.15125 27.875H27.875L9.125 20.375ZM27.875 27.875C26.8804 27.875 25.9266 28.2701 25.2234 28.9734C24.5201 29.6766 24.125 30.6304 24.125 31.625C24.125 32.6196 24.5201 33.5734 25.2234 34.2766C25.9266 34.9799 26.8804 35.375 27.875 35.375C28.8696 35.375 29.8234 34.9799 30.5266 34.2766C31.2299 33.5734 31.625 32.6196 31.625 31.625C31.625 30.6304 31.2299 29.6766 30.5266 28.9734C29.8234 28.2701 28.8696 27.875 27.875 27.875ZM12.875 31.625C12.875 32.6196 12.4799 33.5734 11.7766 34.2766C11.0734 34.9799 10.1196 35.375 9.125 35.375C8.13044 35.375 7.17661 34.9799 6.47335 34.2766C5.77009 33.5734 5.375 32.6196 5.375 31.625C5.375 30.6304 5.77009 29.6766 6.47335 28.9734C7.17661 28.2701 8.13044 27.875 9.125 27.875C10.1196 27.875 11.0734 28.2701 11.7766 28.9734C12.4799 29.6766 12.875 30.6304 12.875 31.625V31.625Z" stroke="black" stroke-width="2" stroke-linecap="round" stroke-linejoin="round"/>
</svg>
