<?xml version="1.0" encoding="iso-8859-1"?>
<!-- Generator: Adobe Illustrator 18.0.0, SVG Export Plug-In . SVG Version: 6.00 Build 0)  -->
<!DOCTYPE svg PUBLIC "-//W3C//DTD SVG 1.1//EN" "http://www.w3.org/Graphics/SVG/1.1/DTD/svg11.dtd">
<svg version="1.1" id="Capa_1" xmlns="http://www.w3.org/2000/svg" xmlns:xlink="http://www.w3.org/1999/xlink" height="40" width="40" x="0px" y="0px"
	 viewBox="0 0 324.726 324.726" style="enable-background:new 0 0 324.726 324.726;" xml:space="preserve">
<g>
	<path d="M156.386,114.736l85.552,13.631l30.399-77.873l-4.171-8.256l-18.393,8.624c-3.577-7.925-9.056-18.562-17.265-27.673
		C217.271,6.277,199.245,4.861,183.543,4.861c-0.223,0-67.668-0.021-67.671-0.021c-10.278,0.009-18.124,4.398-23.31,13.028
		L53.247,82.034l69.783,36.436l1.203-2.054c7.867-13.419,15.941-27.018,23.748-40.17c2.375-4.002,4.752-8.004,7.125-12.007
		l17.173,30.936l-21.093,10.17L156.386,114.736z M163.817,49.724l16.875-29.686c15.692,0.017,30.625,1.071,41.155,12.755
		c7.788,8.646,12.72,18.898,16.515,27.788l4.512,9.365l7.91-3.708l-18.008,46.137l-47.436-7.558l6.219-3.016L163.817,49.724z"/>
	<path d="M320.657,176.03l-38.348-64.744l-64.828,44.663l1.253,2.024c7.903,12.767,15.868,25.793,23.571,38.391
		c2.709,4.429,5.416,8.857,8.127,13.284l-35.397,0.722c0.147-4.547,0.425-11.693,0.571-15.273l0.324-8.126l-10.742,0.208
		l-52.035,69.262l54.633,63.271l9.251,0.173l0.974-20.293c3.32,0.206,6.381,0.307,9.297,0.307c8.604,0,16.207-0.863,23.24-2.636
		c22.07-5.566,31.75-20.842,39.094-34.731c0.266-0.506,31.321-59.208,31.636-59.802C326.077,193.645,325.864,184.655,320.657,176.03
		z M247.038,283.349c-5.9,1.488-12.306,2.212-19.582,2.212c-4.926,0-9.609-0.342-12.703-0.599l-10.391-0.385l-0.418,8.722
		l-32.369-37.484l28.852-38.398l-0.242,6.899l59.01-0.183l18.353,28.791C270.199,266.79,262.288,279.5,247.038,283.349z"/>
	<path d="M77.546,221.082l17.648-30.719c4.308,2.785,11.225,7.332,12.793,8.365l6.792,4.471l5.365-9.31l-32.501-80.303
		L5.256,127.761l-4.92,7.839l16.885,11.3c-4.945,7.166-11.23,17.358-14.785,29.071c-6.617,21.785,1.48,37.954,9.576,51.375
		c0.113,0.192,29.121,48.331,34.936,57.982c5.309,8.784,13.102,13.237,23.212,13.237l72.077,0.015l-0.025-77.679L77.546,221.082z
		 M60.635,221.097l-34.137,0.877c-8.09-13.452-14.899-26.787-10.33-41.83c3.381-11.133,9.615-20.651,15.27-28.495l5.686-8.699
		l-7.256-4.858l48.81-8.402l18.017,44.523l-5.789-3.769L60.635,221.097z"/>
</g>
<g>
</g>
<g>
</g>
<g>
</g>
<g>
</g>
<g>
</g>
<g>
</g>
<g>
</g>
<g>
</g>
<g>
</g>
<g>
</g>
<g>
</g>
<g>
</g>
<g>
</g>
<g>
</g>
<g>
</g>
</svg>
