<svg width="40" height="40" viewBox="0 0 40 40" fill="none" xmlns="http://www.w3.org/2000/svg">
<path d="M19.9946 9.73807C14.3159 9.73807 9.73288 14.3212 9.73288 20C9.73288 25.6788 14.3159 30.2619 19.9946 30.2619C25.6734 30.2619 30.2564 25.6788 30.2564 20C30.2564 14.3212 25.6734 9.73807 19.9946 9.73807ZM19.9946 26.6695C16.3222 26.6695 13.3252 23.6725 13.3252 20C13.3252 16.3275 16.3222 13.3305 19.9946 13.3305C23.667 13.3305 26.664 16.3275 26.664 20C26.664 23.6725 23.667 26.6695 19.9946 26.6695ZM30.6766 6.92617C29.3508 6.92617 28.2801 7.99689 28.2801 9.32279C28.2801 10.6487 29.3508 11.7194 30.6766 11.7194C32.0025 11.7194 33.0732 10.6537 33.0732 9.32279C33.0736 9.00795 33.0119 8.69612 32.8916 8.40517C32.7713 8.11422 32.5948 7.84986 32.3722 7.62724C32.1495 7.40461 31.8852 7.2281 31.5942 7.10779C31.3033 6.98749 30.9915 6.92577 30.6766 6.92617ZM39.9978 20C39.9978 17.2381 40.0228 14.5013 39.8677 11.7444C39.7126 8.54226 38.9821 5.70034 36.6406 3.35876C34.294 1.01217 31.4572 0.286681 28.2551 0.131576C25.4932 -0.0235287 22.7564 0.00148823 19.9996 0.00148823C17.2378 0.00148823 14.501 -0.0235287 11.7442 0.131576C8.5421 0.286681 5.70023 1.01717 3.35869 3.35876C1.01215 5.70534 0.286675 8.54226 0.131574 11.7444C-0.0235283 14.5063 0.0014882 17.2431 0.0014882 20C0.0014882 22.7569 -0.0235283 25.4987 0.131574 28.2556C0.286675 31.4577 1.01716 34.2997 3.35869 36.6412C5.70524 38.9878 8.5421 39.7133 11.7442 39.8684C14.506 40.0235 17.2428 39.9985 19.9996 39.9985C22.7614 39.9985 25.4982 40.0235 28.2551 39.8684C31.4572 39.7133 34.299 38.9828 36.6406 36.6412C38.9871 34.2947 39.7126 31.4577 39.8677 28.2556C40.0278 25.4987 39.9978 22.7619 39.9978 20ZM35.5949 31.798C35.2296 32.7086 34.7893 33.389 34.0839 34.0895C33.3784 34.795 32.703 35.2353 31.7924 35.6005C29.1606 36.6462 22.9115 36.4111 19.9946 36.4111C17.0777 36.4111 10.8236 36.6462 8.19187 35.6055C7.28127 35.2403 6.60082 34.8 5.90036 34.0945C5.1949 33.389 4.75461 32.7136 4.38937 31.803C3.34869 29.1662 3.58384 22.917 3.58384 20C3.58384 17.083 3.34869 10.8288 4.38937 8.19703C4.75461 7.28641 5.1949 6.60595 5.90036 5.90548C6.60583 5.205 7.28127 4.7597 8.19187 4.39446C10.8236 3.35375 17.0777 3.58891 19.9946 3.58891C22.9115 3.58891 29.1657 3.35375 31.7974 4.39446C32.708 4.7597 33.3884 5.2 34.0889 5.90548C34.7943 6.61095 35.2346 7.28641 35.5999 8.19703C36.6406 10.8288 36.4054 17.083 36.4054 20C36.4054 22.917 36.6406 29.1662 35.5949 31.798Z" fill="black"/>
</svg>
