<?xml version="1.0" encoding="iso-8859-1"?>
<!-- Generator: Adobe Illustrator 19.0.0, SVG Export Plug-In . SVG Version: 6.00 Build 0)  -->
<svg version="1.1" id="Capa_1" xmlns="http://www.w3.org/2000/svg" xmlns:xlink="http://www.w3.org/1999/xlink" height="40" width="40" x="0px" y="0px"
	 viewBox="0 0 512 512" style="enable-background:new 0 0 512 512;" xml:space="preserve">
<g>
	<g>
		<path d="M245.333,448H10.667C4.779,448,0,452.779,0,458.667v42.667C0,507.221,4.779,512,10.667,512h234.667
			c5.888,0,10.667-4.779,10.667-10.667v-42.667C256,452.779,251.221,448,245.333,448z"/>
	</g>
</g>
<g>
	<g>
		<circle cx="480" cy="202.667" r="32"/>
	</g>
</g>
<g>
	<g>
		<path d="M224,341.333h-32V320c0-35.285-28.715-64-64-64s-64,28.715-64,64v21.333H32c-5.888,0-10.667,4.779-10.667,10.667v74.667
			h213.333V352C234.667,346.112,229.888,341.333,224,341.333z M85.333,394.667c0,5.888-4.779,10.667-10.667,10.667
			S64,400.555,64,394.667v-21.333c0-5.888,4.779-10.667,10.667-10.667s10.667,4.779,10.667,10.667V394.667z M128,394.667
			c0,5.888-4.779,10.667-10.667,10.667s-10.667-4.779-10.667-10.667v-21.333c0-5.888,4.779-10.667,10.667-10.667
			S128,367.445,128,373.333V394.667z"/>
	</g>
</g>
<g>
	<g>
		<path d="M476.885,312.469l-19.264-19.264c0.448-1.707,1.045-3.349,1.045-5.205c0-1.899-0.619-3.584-1.088-5.333l21.163-26.795
			c-16.491-0.384-30.997-8.341-40.512-20.459l-9.472,33.131c-4.075,1.813-7.211,4.992-9.472,8.789h-24.619
			c-5.888,0-10.667,4.779-10.667,10.667v42.667c0,5.888,4.779,10.667,10.667,10.667s10.667-4.779,10.667-10.667v-32h13.952
			c3.733,6.251,10.261,10.667,18.048,10.667c1.835,0,3.499-0.619,5.205-1.045L454.251,320l-24.448,24.448
			c-4.16,4.16-4.16,10.923,0,15.083c2.069,2.091,4.8,3.136,7.531,3.136c2.731,0,5.461-1.045,7.552-3.115l32-32
			C481.045,323.392,481.045,316.629,476.885,312.469z"/>
	</g>
</g>
<g>
	<g>
		<path d="M266.667,128c-27.84,0-51.904-15.509-64.725-38.165l-93.056,147.179c6.165-1.429,12.523-2.347,19.115-2.347
			c33.984,0,63.147,20.096,76.864,48.917l70.379-156.459C272.384,127.467,269.611,128,266.667,128z"/>
	</g>
</g>
<g>
	<g>
		<circle cx="266.667" cy="53.333" r="53.333"/>
	</g>
</g>
<g>
	<g>
		<path d="M340.224,64.363c-3.456,23.083-17.408,42.539-36.949,53.632l124.096,77.653c2.304-17.195,12.736-31.723,27.413-39.68
			L340.224,64.363z"/>
	</g>
</g>
<g>
</g>
<g>
</g>
<g>
</g>
<g>
</g>
<g>
</g>
<g>
</g>
<g>
</g>
<g>
</g>
<g>
</g>
<g>
</g>
<g>
</g>
<g>
</g>
<g>
</g>
<g>
</g>
<g>
</g>
</svg>
