<?xml version="1.0" ?><svg width='40' height='40' id="Layer_1" style="enable-background:new 0 0 56 56;" version="1.1" viewBox="0 0 56 56" xml:space="preserve" xmlns="http://www.w3.org/2000/svg" xmlns:xlink="http://www.w3.org/1999/xlink"><g><path d="M48.2,25.3c-0.3-0.2-0.8-0.1-1.1,0.1l-7.7,6.1v-5.8c0-0.4-0.2-0.7-0.5-0.9c-0.3-0.2-0.7-0.1-1,0.1l-9.4,6.8L28,25.4   c0-0.3-0.2-0.7-0.5-0.8c-0.3-0.2-0.7-0.1-1,0l-11.3,6.8v-9.2c0.7-0.4,1.3-0.9,1.7-1.6c0.5,0.2,1.1,0.2,1.7,0.2c2.2,0,4.1-1.2,5.1-3   c0.3,0,0.6,0.1,1,0.1c4.1,0,7.4-3.3,7.4-7.4c0-4.1-3.3-7.5-7.4-7.5c-3.7,0-6.7,2.6-7.3,6.2c-2.6,0.5-4.5,2.7-4.7,5.4   c-1.9,0.3-3.4,2-3.4,4c0,0.1,0,0.2,0,0.2h-1c-0.6,0-1,0.4-1,1V52c0,0.6,0.4,1,1,1h39.5c0.6,0,1-0.4,1-1V26.2   C48.7,25.8,48.5,25.5,48.2,25.3z M11.3,18.6c0-1.2,0.9-2.1,2.1-2.1c0.1,0,0.2,0,0.3,0c0.3,0,0.6-0.1,0.8-0.3   c0.2-0.2,0.3-0.5,0.3-0.8c0-0.2,0-0.3,0-0.5c0-2,1.6-3.8,3.6-3.9c0.5,0,0.9-0.4,0.9-0.9C19.4,7.2,21.8,5,24.7,5   c3,0,5.4,2.4,5.4,5.5c0,3-2.4,5.4-5.4,5.4c-0.4,0-0.9-0.1-1.3-0.2c-0.5-0.1-1,0.1-1.2,0.6c-0.6,1.5-2,2.5-3.6,2.5   c-0.6,0-1.2-0.1-1.8-0.4c-0.3-0.1-0.6-0.1-0.9,0c-0.3,0.1-0.5,0.4-0.6,0.7c0,0.2-0.1,0.4-0.2,0.6c-0.1-0.5-0.5-0.8-1-0.8h-2.9   C11.3,18.8,11.3,18.7,11.3,18.6z M10.5,20.8C10.5,20.8,10.5,20.8,10.5,20.8h2.7v1.6H9.3v-1.6H10.5z M46.7,51H9.3V24.5h3.9v8.7   c0,0.4,0.2,0.7,0.5,0.9c0.3,0.2,0.7,0.2,1,0l11.4-6.8l0.5,6.4c0,0.4,0.2,0.7,0.6,0.8c0.3,0.2,0.7,0.1,1-0.1l9.3-6.7v5.9   c0,0.4,0.2,0.7,0.6,0.9c0.3,0.2,0.8,0.1,1.1-0.1l7.7-6.1V51z"/><path d="M40.3,48h4.3c0.6,0,1-0.4,1-1v-4.3c0-0.6-0.4-1-1-1h-4.3c-0.6,0-1,0.4-1,1V47C39.3,47.6,39.7,48,40.3,48z M41.3,43.7h2.3   V46h-2.3V43.7z"/><path d="M27.7,41.7h-4.3c-0.6,0-1,0.4-1,1V47c0,0.6,0.4,1,1,1h4.3c0.6,0,1-0.4,1-1v-4.3C28.7,42.2,28.2,41.7,27.7,41.7z M26.7,46   h-2.3v-2.3h2.3V46z"/><path d="M19.3,36.3h-4.3c-0.6,0-1,0.4-1,1v4.3c0,0.6,0.4,1,1,1h4.3c0.6,0,1-0.4,1-1v-4.3C20.3,36.8,19.8,36.3,19.3,36.3z    M18.3,40.7h-2.3v-2.3h2.3V40.7z"/><path d="M36.1,36.3h-4.3c-0.6,0-1,0.4-1,1v4.3c0,0.6,0.4,1,1,1h4.3c0.6,0,1-0.4,1-1v-4.3C37.1,36.8,36.7,36.3,36.1,36.3z    M35.1,40.7h-2.3v-2.3h2.3V40.7z"/></g></svg>