<svg id="Layer_1" enable-background="new 0 0 512 512" height="40" width="40" viewBox="0 0 512 512" xmlns="http://www.w3.org/2000/svg"><g><g><g><path d="m505.854 150.336c-3.691-1.749-8.149-1.173-11.349 1.451l-110.507 92.096v-83.883c0-4.139-2.389-7.915-6.144-9.664-3.712-1.749-8.149-1.173-11.349 1.451l-110.507 92.096v-83.883c0-4.224-2.496-8.064-6.379-9.771-3.84-1.749-8.384-.96-11.499 1.899l-66.859 61.291c-2.432 2.24-3.712 5.483-3.413 8.789l24.021 276.267 10.581-.363-10.667 3.221c0 5.888 4.779 10.667 10.667 10.667h298.88c5.888 0 10.667-4.779 10.667-10.667v-341.333c.001-4.139-2.388-7.915-6.143-9.664zm-185.856 244.331c0 5.888-4.779 10.667-10.667 10.667h-64c-5.888 0-10.667-4.779-10.667-10.667v-64c0-5.888 4.779-10.667 10.667-10.667h64c5.888 0 10.667 4.779 10.667 10.667zm128 0c0 5.888-4.779 10.667-10.667 10.667h-64c-5.888 0-10.667-4.779-10.667-10.667v-64c0-5.888 4.779-10.667 10.667-10.667h64c5.888 0 10.667 4.779 10.667 10.667z"/><path d="m127.956 9.749c-.47-5.525-5.099-9.749-10.624-9.749h-64c-5.525 0-10.155 4.224-10.624 9.749l-42.667 490.667c-.256 2.987.747 5.931 2.752 8.128s4.885 3.456 7.872 3.456h149.333c.128 0 .277-.021.427 0 5.888 0 10.667-4.779 10.667-10.667 0-1.365-.256-2.667-.725-3.861z"/></g></g></g><g/><g/><g/><g/><g/><g/><g/><g/><g/><g/><g/><g/><g/><g/><g/></svg>