<?xml version="1.0" ?><svg width='40' height='40' style="enable-background:new 0 0 50 50;" version="1.1" viewBox="0 0 50 50" xml:space="preserve" xmlns="http://www.w3.org/2000/svg" xmlns:xlink="http://www.w3.org/1999/xlink"><g id="Layer_1"><path d="M25,49.07L48.809,40l-13.125-5l13.125-5l-13.125-5l13.125-5l-13.125-5l13.125-5L25,0.93L1.191,10l13.125,5L1.191,20   l13.125,5L1.191,30l13.125,5L1.191,40L25,49.07z M6.809,10L25,3.07L43.191,10l-10.316,3.93l0,0l-7.875,3l-7.875-3l0,0L6.809,10z    M6.809,20l10.316-3.93l7.875,3l7.875-3L43.191,20l-10.316,3.93l0,0l-7.875,3l-7.875-3l0,0L6.809,20z M6.809,30l10.316-3.93   l7.875,3l7.875-3L43.191,30l-10.316,3.93l0,0l-7.875,3l-7.875-3l0,0L6.809,30z M32.875,36.07L43.191,40L25,46.93L6.809,40   l10.316-3.93l7.875,3L32.875,36.07z"/></g><g/></svg>