<svg id="Capa_1" enable-background="new 0 0 499 499" height="40" viewBox="0 0 499 499" width="40" xmlns="http://www.w3.org/2000/svg"><g><path d="m192.5 87c3.139-75.633 110.885-75.583 114 0v27h30v-27c0-47.97-39.03-87-87-87s-87 39.03-87 87v27h30z"/><path d="m211.33 359.52 50.81 18.48h74.36v-30.1c-21.34-3.07-44.57-12.53-69.29-28.24-15.29-9.71-27.24-19.4-33.38-24.66h-71.33v83h31.5z"/><path d="m336.5 114v69h-30c0-18.525 0-50.807 0-69h-114v69h-30c0-18.525 0-50.807 0-69h-161v385h496v-385zm-91.1 151c4.116 3.44 54.396 52.62 106.1 54.001 0-.001 15-.001 15-.001v89h-109.64l-37.19-13.52-12.67 13.52h-74.5v-143z"/></g></svg>