<?xml version="1.0" ?><!DOCTYPE svg  PUBLIC '-//W3C//DTD SVG 1.1//EN'  'http://www.w3.org/Graphics/SVG/1.1/DTD/svg11.dtd'><svg width="40" height="40" enable-background="new 0 0 800 800"  id="Layer_1" version="1.1" viewBox="0 0 800 800"  xml:space="preserve" xmlns="http://www.w3.org/2000/svg" xmlns:xlink="http://www.w3.org/1999/xlink"><g><path d="M434.316,295.496c2.85,2.345,6.426,3.611,10.083,3.611c0.521,0,1.036-0.026,1.549-0.075   c4.194-0.412,8.054-2.479,10.728-5.736c18.455-22.549,32.397-48.468,40.312-74.948c1.823-6.116-0.195-12.732-5.126-16.791   L329.884,68.27c-4.922-4.054-11.809-4.766-17.456-1.792c-24.422,12.826-47.171,31.5-65.787,53.992   c-2.691,3.244-3.966,7.43-3.576,11.627c0.407,4.196,2.461,8.055,5.718,10.736L434.316,295.496z M318.129,99.69l145.169,119.446   c-5.259,14.294-12.569,28.285-21.6,41.346L281.722,128.852C292.813,117.46,305.134,107.591,318.129,99.69z" fill="#4D4D4D"/><path d="M341.417,381.241c2.894,2.387,6.47,3.617,10.082,3.617c2.372,0,4.762-0.532,6.975-1.615   c21.723-10.64,41.692-25.361,59.324-43.755c3.063-3.187,4.656-7.506,4.391-11.915c-0.258-4.408-2.337-8.506-5.754-11.312   L231.859,164.379c-3.408-2.806-7.816-4.076-12.215-3.47c-4.373,0.593-8.303,2.983-10.835,6.595   c-14.658,20.849-25.263,43.271-31.513,66.645c-1.61,6.006,0.443,12.401,5.241,16.349L341.417,381.241z M225.504,200.232   l156.977,129.165c-9.144,7.967-18.854,14.871-29.052,20.651L210.837,232.701C214.545,221.583,219.449,210.727,225.504,200.232z" fill="#4D4D4D"/><path d="M502.987,175.222c2.878,2.373,6.453,3.612,10.074,3.612c1.833,0,3.674-0.319,5.443-0.965   c5.285-1.93,9.145-6.506,10.154-12.035c9.453-51.534-5.1-98.917-38.931-126.748c-33.707-27.737-83.525-32.858-131.891-13.795   c-5.223,2.058-8.976,6.731-9.843,12.286c-0.885,5.55,1.239,11.148,5.585,14.72L502.987,175.222z M469.564,63.584   c19.049,15.667,29.511,39.62,30.236,67.941L397.113,47.031C424.748,42.438,450.913,48.23,469.564,63.584z" fill="#4D4D4D"/><path d="M213.421,480.944c-28.423,0-53.845-9.569-73.523-27.662c-15.721-14.459-25.218-35.159-26.741-58.285   c-0.354-5.369-3.399-10.192-8.108-12.812c-4.691-2.625-10.392-2.678-15.154-0.16c-14.526,7.71-27.21,18.093-37.691,30.853   c-39.603,48.123-36.991,115.945,5.825,151.188c16.641,13.688,37.292,20.926,59.713,20.926c33.38,0,66.937-16.567,89.783-44.325   c9.623-11.716,16.934-24.741,21.732-38.713c1.664-4.847,0.46-10.198-2.514-14.366C223.769,483.418,218.546,480.944,213.421,480.944   z M183.015,520.524c-16.872,20.501-41.267,32.742-65.272,32.742c-14.978,0-28.662-4.739-39.55-13.698   c-29.316-24.124-29.99-71.915-1.487-106.54c2.868-3.499,5.966-6.761,9.277-9.768c5.86,20.718,16.96,39.139,32.442,53.372   c19.703,18.116,44.551,29.889,71.602,34.194C187.919,514.173,185.573,517.408,183.015,520.524z" fill="#4D4D4D"/><path d="M574.263,269.36c-4.922-4.045-11.791-4.766-17.456-1.792c-24.439,12.831-47.188,31.503-65.776,53.992   c-2.683,3.248-3.976,7.43-3.568,11.626c0.406,4.191,2.461,8.056,5.719,10.729l185.515,152.666   c2.851,2.346,6.427,3.611,10.083,3.611c0.521,0,1.035-0.026,1.549-0.075c4.195-0.416,8.055-2.478,10.728-5.739   c18.474-22.573,32.416-48.492,40.312-74.953c1.822-6.116-0.195-12.729-5.117-16.788L574.263,269.36z M686.078,461.567   L526.109,329.933c11.083-11.388,23.403-21.252,36.397-29.158l145.169,119.447C702.427,434.504,695.107,448.494,686.078,461.567z" fill="#4D4D4D"/><path d="M476.23,365.463c-3.409-2.806-7.835-4.066-12.216-3.465c-4.383,0.593-8.313,2.988-10.844,6.603   c-14.659,20.872-25.264,43.295-31.504,66.637c-1.602,6.011,0.442,12.401,5.249,16.348l158.889,130.75   c2.896,2.386,6.472,3.617,10.083,3.617c2.372,0,4.761-0.532,6.983-1.62c21.723-10.663,41.683-25.379,59.315-43.745   c3.063-3.187,4.648-7.506,4.399-11.916c-0.265-4.407-2.354-8.511-5.763-11.32L476.23,365.463z M597.809,551.139L455.208,433.791   c3.707-11.105,8.621-21.962,14.674-32.464l156.978,129.161C617.725,538.445,608.014,545.349,597.809,551.139z" fill="#4D4D4D"/><path d="M734.107,240.171c-33.698-27.737-83.515-32.853-131.873-13.795c-5.24,2.058-8.977,6.732-9.861,12.282   c-0.868,5.555,1.258,11.153,5.594,14.725l149.401,122.924c2.885,2.373,6.462,3.612,10.072,3.612c1.841,0,3.683-0.319,5.453-0.966   c5.275-1.93,9.134-6.51,10.153-12.037C782.492,315.386,767.939,268.006,734.107,240.171z M641.501,248.116   c27.652-4.586,53.801,1.204,72.451,16.548c19.039,15.672,29.493,39.622,30.229,67.942L641.501,248.116z" fill="#4D4D4D"/><path d="M457.791,682.033c-28.405,0-53.818-9.567-73.504-27.669c-15.739-14.466-25.228-35.16-26.75-58.276   c-0.354-5.374-3.408-10.197-8.108-12.817c-4.691-2.62-10.41-2.678-15.171-0.15c-14.508,7.71-27.193,18.093-37.674,30.852   c-39.593,48.123-36.982,115.945,5.843,151.18c16.623,13.689,37.266,20.925,59.687,20.925c33.38,0,66.946-16.561,89.765-44.302   c9.596-11.653,16.924-24.679,21.758-38.713c1.673-4.847,0.479-10.202-2.495-14.376   C468.157,684.508,462.925,682.033,457.791,682.033z M427.386,721.614c-16.863,20.501-41.276,32.738-65.273,32.738   c-14.978,0-28.644-4.735-39.532-13.694c-29.308-24.124-29.981-71.911-1.496-106.535c2.876-3.501,5.966-6.758,9.276-9.768   c5.86,20.715,16.96,39.12,32.451,53.358c19.704,18.119,44.551,29.897,71.593,34.202   C432.29,715.268,429.944,718.503,427.386,721.614z" fill="#4D4D4D"/></g></svg>