<svg height="40" viewBox="0 -16 512 512" width="40" xmlns="http://www.w3.org/2000/svg"><path d="m91 450.050781h150v30h-150zm0 0"/><path d="m0 390.050781h151v30h-151zm0 0"/><path d="m97.765625 132.664062c-4.96875-7.492187-10.832031-14.171874-17.449219-20.042968l-29.789062 40.816406 63.128906 50.492188c3.453125-24.683594-1.878906-50.148438-15.890625-71.265626zm0 0"/><path d="m122.769531 116.082031c21.296875 32.105469 27.3125 72.035157 17.167969 108.871094l202.328125 165.097656h168.695313c-4.855469-36.5625-28.242188-68.410156-61.925782-85.253906l-15.6875-7.851563c-.410156-.207031-.761718-.488281-1.167968-.695312l-27.761719 55.507812-26.835938-13.417968 29.476563-58.941406c-3.511719-2.90625-6.917969-5.882813-10.105469-9.09375l-42.179687 42.179687-21.210938-21.210937 44.582031-44.578126c-3.207031-5.070312-6.015625-10.339843-8.542969-15.785156l-64.835937 25.222656-10.871094-27.949218 65.976563-25.667969c-2.636719-11.894531-3.9375-24.195313-3.324219-36.734375l.761719-15.730469h-21.402344c-55.019531 0-97.152344-41.222656-103.421875-95.890625-3.617187-31.523437-31.832031-55.5625-62.945313-54.097656l-7.265624.265625-64.265626 88.054687c9.394532 8.003907 17.777344 17.175782 24.761719 27.699219zm0 0"/><path d="m331.746094 420.050781-298.445313-241.964843-33.300781 50.097656 310.742188 251.867187h201.257812v-60zm0 0"/></svg>